<svg xmlns="http://www.w3.org/2000/svg" version="1.1" xmlns:xlink="http://www.w3.org/1999/xlink" xmlns:svgjs="http://svgjs.dev/svgjs" width="128" height="128" viewBox="0 0 128 128"><g transform="matrix(0.8046875,0,0,0.8046875,12.635578844768396,12.760752631578946)"><svg viewBox="0 0 95 95" data-background-color="#ffffff" preserveAspectRatio="xMidYMid meet" height="128" width="128" xmlns="http://www.w3.org/2000/svg" xmlns:xlink="http://www.w3.org/1999/xlink"><g id="tight-bounds" transform="matrix(1,0,0,1,-0.12504844905822665,-0.24049999999999727)"><svg viewBox="0 0 95.25009689811644 95.481" height="95.481" width="95.25009689811644"><g><svg viewBox="0 0 95.25009689811644 95.481" height="95.481" width="95.25009689811644"><g><svg viewBox="0 0 95.25009689811644 95.481" height="95.481" width="95.25009689811644"><g id="textblocktransform"><svg viewBox="0 0 95.25009689811644 95.481" height="95.481" width="95.25009689811644" id="textblock"><g><svg viewBox="0 0 95.25009689811644 95.481" height="95.481" width="95.25009689811644"><g><svg viewBox="0 0 95.25009689811644 95.481" height="95.481" width="95.25009689811644"><g><svg xmlns="http://www.w3.org/2000/svg" xmlns:xlink="http://www.w3.org/1999/xlink" version="1.1" x="0" y="0" viewBox="3.6534282420263815 2.7098870943043565 58.55357175797362 58.69551598465235" style="enable-background:new 0 0 64 64;" xml:space="preserve" height="95.481" width="95.25009689811644" class="icon-icon-0" data-fill-palette-color="accent" id="icon-0"></svg></g></svg></g></svg></g></svg></g></svg></g></svg></g><defs></defs><mask id="16244519-c8f9-4c00-8635-f87781f45e6d"><g id="SvgjsG1151"><svg viewBox="0 0 95.25009689811644 95.481" height="95.481" width="95.25009689811644"><g><svg viewBox="0 0 95.25009689811644 95.481" height="95.481" width="95.25009689811644"><g><svg viewBox="0 0 95.25009689811644 95.481" height="95.481" width="95.25009689811644"><g id="SvgjsG1150"><svg viewBox="0 0 95.25009689811644 95.481" height="95.481" width="95.25009689811644" id="SvgjsSvg1149"><g><svg viewBox="0 0 95.25009689811644 95.481" height="95.481" width="95.25009689811644"><g><svg viewBox="0 0 95.25009689811644 95.481" height="95.481" width="95.25009689811644"><g><svg xmlns="http://www.w3.org/2000/svg" xmlns:xlink="http://www.w3.org/1999/xlink" version="1.1" x="0" y="0" viewBox="3.6534282420263815 2.7098870943043565 58.55357175797362 58.69551598465235" style="enable-background:new 0 0 64 64;" xml:space="preserve" height="95.481" width="95.25009689811644" class="icon-icon-0" data-fill-palette-color="accent" id="SvgjsSvg1148"><rect x="9" y="7" width="2" height="2" fill="white"></rect><rect x="13" y="7" width="2" height="2" fill="white"></rect><rect x="17" y="7" width="2" height="2" fill="white"></rect><path d="M51 24H53C53 22.346 54.346 21 56 21V19C54.346 19 53 17.654 53 16H51C51 17.654 49.654 19 48 19V21C49.654 21 51 22.346 51 24M52 18.969C52.292 19.362 52.638 19.708 53.031 20A5 5 0 0 0 52 21.031 5 5 0 0 0 50.969 20 5 5 0 0 0 52 18.969" fill="white"></path><path d="M57 13H59C59 11.346 60.346 10 62 10V8C60.346 8 59 6.654 59 5H57C57 6.654 55.654 8 54 8V10C55.654 10 57 11.346 57 13M58 7.969C58.292 8.362 58.638 8.708 59.031 9A5 5 0 0 0 58 10.031 5 5 0 0 0 56.969 9 5 5 0 0 0 58 7.969" fill="white"></path><path d="M39.419 59.304C29.371 58.454 17.883 54.687 8.688 49.224L5.961 47.605C6.367 46.655 6.602 45.662 6.831 44.695 6.899 44.405 6.968 44.116 7.04 43.83 7.251 43.003 7.485 41.655 7.756 40.096 8.146 37.851 8.631 35.057 9.069 33.934L15.059 18.582C15.19 18.247 15.309 17.886 15.431 17.517 15.755 16.531 16.091 15.51 16.719 14.958 17.073 14.646 17.534 14.414 17.979 14.209A1 1 0 0 0 18.125 14.126L29.978 5.049A1.62 1.62 0 0 1 31.982 5.069L37.926 9.824A1.622 1.622 0 0 1 37.98 12.314L34.188 15.631A1.63 1.63 0 0 1 31.969 15.558 1.623 1.623 0 0 1 32.218 13.057L32.554 12.832 31.443 11.17 31.108 11.394C30.201 11.998 29.619 12.967 29.511 14.052S29.784 16.201 30.555 16.972A3.63 3.63 0 0 0 35.504 17.137L38.693 14.347 39.674 15.819 33.683 20.955 26.526 20.06C26.635 19.548 26.76 19.039 26.906 18.535L24.986 17.978A23.5 23.5 0 0 0 24.06 25.081C24.09 26.372 24.228 27.658 24.362 28.902 24.518 30.364 24.666 31.745 24.657 33.144 24.63 37.333 23.007 41.244 20.316 43.603L21.634 45.107C23.539 43.437 24.95 41.184 25.786 38.607 26.088 38.506 26.472 38.513 26.849 38.545A11.8 11.8 0 0 1 30.634 39.561 12 12 0 0 0 29.452 42.064L31.348 42.701A10 10 0 0 1 32.395 40.523C32.419 40.539 32.445 40.551 32.468 40.567L33.427 39.168C35.311 37.058 38.087 35.587 41.316 35.104 46.151 34.379 50.646 36.037 53.067 39.421L54.694 38.257C53.69 36.854 52.388 35.707 50.886 34.837 53.783 32.426 57.976 31.558 61.551 32.8L62.207 30.911C57.699 29.341 52.363 30.611 48.936 33.905 46.556 32.998 43.83 32.704 41.021 33.126 37.282 33.684 34.06 35.418 31.867 37.913A13.8 13.8 0 0 0 27.024 36.554 7 7 0 0 0 26.324 36.527 18.5 18.5 0 0 0 26.656 33.158C26.666 31.644 26.505 30.142 26.349 28.689 26.22 27.486 26.087 26.242 26.059 25.034A21.4 21.4 0 0 1 26.207 22.036L33.873 22.994C33.917 22.997 33.959 23 34 23A1 1 0 0 0 34.65 22.759L41.65 16.759A1 1 0 0 0 41.832 15.446L40.078 12.814A3.6 3.6 0 0 0 40.535 11.011 3.62 3.62 0 0 0 39.176 8.26L33.233 3.505A3.62 3.62 0 0 0 28.759 3.463L17.436 12.175 17.066 12.428C16.531 12.677 15.923 12.995 15.4 13.455 14.364 14.366 13.921 15.707 13.532 16.891 13.423 17.224 13.315 17.551 13.197 17.855L7.207 33.207C6.696 34.517 6.233 37.18 5.786 39.754 5.533 41.209 5.295 42.584 5.103 43.337 5.027 43.634 4.956 43.934 4.885 44.234 4.605 45.42 4.34 46.539 3.788 47.491A1 1 0 0 0 4.142 48.851L7.665 50.944C17.108 56.553 28.915 60.423 39.25 61.297A36 36 0 0 0 42.212 61.405C47.961 61.405 57.235 60.399 61.635 56.772L60.364 55.229C55.82 58.975 44.479 59.73 39.419 59.304" fill="white"></path></svg></g></svg></g></svg></g></svg></g></svg></g></svg></g><defs><mask></mask></defs></svg><rect width="95.25009689811644" height="95.481" fill="black" stroke="none" visibility="hidden"></rect></g></mask><linearGradient x1="0" x2="1" y1="0.578" y2="0.595" id="1c1aa954-d72b-42d1-8563-6a86c55cc284"><stop stop-color="#dede50" offset="0"></stop><stop stop-color="#559c49" offset="1"></stop></linearGradient><rect width="95.25009689811644" height="95.481" fill="url(#1c1aa954-d72b-42d1-8563-6a86c55cc284)" mask="url(#16244519-c8f9-4c00-8635-f87781f45e6d)" data-fill-palette-color="accent"></rect></svg><rect width="95.25009689811644" height="95.481" fill="none" stroke="none" visibility="hidden"></rect></g></svg></g></svg>