<svg xmlns="http://www.w3.org/2000/svg" version="1.1" xmlns:xlink="http://www.w3.org/1999/xlink" xmlns:svgjs="http://svgjs.dev/svgjs" width="1500" height="299" viewBox="0 0 1500 299"><g transform="matrix(1,0,0,1,-0.9090909090911055,0.24983650630014154)"><svg viewBox="0 0 396 79" data-background-color="#ffffff" preserveAspectRatio="xMidYMid meet" height="299" width="1500" xmlns="http://www.w3.org/2000/svg" xmlns:xlink="http://www.w3.org/1999/xlink"><g id="tight-bounds" transform="matrix(1,0,0,1,0.24000000000003752,-0.06601031437361371)"><svg viewBox="0 0 395.5199999999999 79.13202062874724" height="79.13202062874724" width="395.5199999999999"><g><svg viewBox="0 0 509.0318490084405 101.84243218149592" height="79.13202062874724" width="395.5199999999999"><g transform="matrix(1,0,0,1,113.51184900844048,25.68420793761078)"><svg viewBox="0 0 395.52 50.474016306274365" height="50.474016306274365" width="395.52"><g id="textblocktransform"><svg viewBox="0 0 395.52 50.474016306274365" height="50.474016306274365" width="395.52" id="textblock"><g><svg viewBox="0 0 395.52 50.474016306274365" height="50.474016306274365" width="395.52"><g transform="matrix(1,0,0,1,0,0)"><svg width="395.52" viewBox="2.25 -35.75 282.08 36" height="50.474016306274365" data-palette-color="url(#69d0a286-933e-42be-b186-ea1bc950831a)"></svg></g></svg></g></svg></g></svg></g><g><svg viewBox="0 0 101.59614513492045 101.84243218149592" height="101.84243218149592" width="101.59614513492045"><g><svg xmlns="http://www.w3.org/2000/svg" xml:space="preserve" viewBox="3.65342824202639 2.7098870943043507 58.553571757973614 58.695515984652346" x="0" y="0" height="101.84243218149592" width="101.59614513492045" class="icon-icon-0" data-fill-palette-color="accent" id="icon-0"></svg></g></svg></g></svg></g><defs></defs><mask id="2d7f13a7-6e9e-48e2-9226-da5520a88a41"><g id="SvgjsG3022"><svg viewBox="0 0 395.5199999999999 79.13202062874724" height="79.13202062874724" width="395.5199999999999"><g><svg viewBox="0 0 509.0318490084405 101.84243218149592" height="79.13202062874724" width="395.5199999999999"><g transform="matrix(1,0,0,1,113.51184900844048,25.68420793761078)"><svg viewBox="0 0 395.52 50.474016306274365" height="50.474016306274365" width="395.52"><g id="SvgjsG3021"><svg viewBox="0 0 395.52 50.474016306274365" height="50.474016306274365" width="395.52" id="SvgjsSvg3020"><g><svg viewBox="0 0 395.52 50.474016306274365" height="50.474016306274365" width="395.52"><g transform="matrix(1,0,0,1,0,0)"><svg width="395.52" viewBox="2.25 -35.75 282.08 36" height="50.474016306274365" data-palette-color="url(#69d0a286-933e-42be-b186-ea1bc950831a)"><path d="M10.35-17.65L2.25-17.65 2.25-35.75 46.25-35.75 46.25-17.65 38.15-17.65 38.15-29.25 27.25-29.25 27.25 0 19.25 0 19.25-29.25 10.35-29.25 10.35-17.65ZM58.6 0L51.25 0 51.25-25.75 70.95-25.75Q75.3-25.75 77.35-23.58 79.4-21.4 79.4-17.85L79.4-17.85 79.4-12.5 72.05-12.5 72.05-16.95Q72.05-19.95 69.05-19.95L69.05-19.95 58.6-19.95 58.6 0ZM116.7 0L90.25 0Q86.2 0 84.05-2.05 81.9-4.1 81.9-7.9L81.9-7.9Q81.9-11.65 84.05-13.7 86.2-15.75 90.25-15.75L90.25-15.75 109.45-15.75 109.45-16.95Q109.45-20 106.45-20L106.45-20 85.25-20 85.25-25.75 108.35-25.75Q112.9-25.75 114.8-23.68 116.7-21.6 116.7-17.85L116.7-17.85 116.7 0ZM91.55-5.75L91.55-5.75 109.45-5.75 109.45-10 91.55-10Q90.6-10 90.07-9.43 89.55-8.85 89.55-7.9L89.55-7.9Q89.55-6.95 90.07-6.35 90.6-5.75 91.55-5.75ZM129.44 0L122.19 0 122.19-25.75 129.44-25.75 129.44 0ZM129.49-30L122.14-30 122.14-35.65 129.49-35.65 129.49-30ZM142.19 0L134.94 0 134.94-25.75 157.39-25.75Q161.79-25.75 163.82-23.58 165.84-21.4 165.84-17.85L165.84-17.85 165.84 0 158.59 0 158.59-17Q158.59-20 155.59-20L155.59-20 142.19-20 142.19 0ZM181.54 0L174.84 0 170.84-35.75 178.84-35.75 181.79-9.65 191.74-17.3 191.74-35.75 199.74-35.75 199.74-17.25 209.59-9.65 212.59-35.75 220.59-35.75 216.59 0 209.89 0 195.74-11.45 181.54 0ZM258.54 0.25L238.29 0.25Q231.59 0.25 227.84-3.08 224.09-6.4 224.09-12.85L224.09-12.85Q224.09-19.35 227.84-22.68 231.59-26 238.29-26L238.29-26 250.79-26Q255.19-26 257.51-23.93 259.84-21.85 259.84-18L259.84-18Q259.84-10.15 250.79-10.15L250.79-10.15 231.89-10.15Q232.94-5.5 238.29-5.5L238.29-5.5 258.54-5.5 258.54 0.25ZM250.44-20.25L238.29-20.25Q233.14-20.25 231.94-15.9L231.94-15.9 250.44-15.9Q251.44-15.9 252.01-16.5 252.59-17.1 252.59-18.15L252.59-18.15Q252.59-20.25 250.44-20.25L250.44-20.25ZM271.58 0L264.33 0 264.33-35.75 271.58-35.75 271.58 0ZM284.33 0L277.08 0 277.08-35.75 284.33-35.75 284.33 0Z" opacity="1" transform="matrix(1,0,0,1,0,0)" fill="white" class="wordmark-text-0" id="SvgjsPath3019"></path></svg></g></svg></g></svg></g></svg></g><g><svg viewBox="0 0 101.59614513492045 101.84243218149592" height="101.84243218149592" width="101.59614513492045"><g><svg xmlns="http://www.w3.org/2000/svg" xml:space="preserve" viewBox="3.65342824202639 2.7098870943043507 58.553571757973614 58.695515984652346" x="0" y="0" height="101.84243218149592" width="101.59614513492045" class="icon-icon-0" data-fill-palette-color="accent" id="SvgjsSvg3018"><path d="M9 7h2v2H9zM13 7h2v2h-2zM17 7h2v2h-2zM51 24h2c0-1.654 1.346-3 3-3v-2c-1.654 0-3-1.346-3-3h-2c0 1.654-1.346 3-3 3v2c1.654 0 3 1.346 3 3m1-5.031q0.44 0.591 1.031 1.031A5 5 0 0 0 52 21.031 5 5 0 0 0 50.969 20 5 5 0 0 0 52 18.969M57 13h2c0-1.654 1.346-3 3-3V8c-1.654 0-3-1.346-3-3h-2c0 1.654-1.346 3-3 3v2c1.654 0 3 1.346 3 3m1-5.031q0.44 0.591 1.031 1.031A5 5 0 0 0 58 10.031 5 5 0 0 0 56.969 9 5 5 0 0 0 58 7.969" fill="black"></path><path d="M39.419 59.304c-10.048-0.85-21.536-4.617-30.731-10.08l-2.727-1.619c0.406-0.95 0.641-1.943 0.87-2.91q0.101-0.436 0.209-0.865c0.211-0.827 0.445-2.175 0.716-3.734 0.39-2.245 0.875-5.039 1.313-6.162l5.99-15.352c0.131-0.335 0.25-0.696 0.372-1.065 0.324-0.986 0.66-2.007 1.288-2.559 0.354-0.312 0.815-0.544 1.26-0.749a1 1 0 0 0 0.146-0.083l11.853-9.077a1.62 1.62 0 0 1 2.004 0.02l5.944 4.755a1.622 1.622 0 0 1 0.054 2.49l-3.792 3.317a1.63 1.63 0 0 1-2.219-0.073 1.623 1.623 0 0 1 0.249-2.501l0.336-0.225-1.111-1.662-0.335 0.224c-0.907 0.604-1.489 1.573-1.597 2.658s0.273 2.149 1.044 2.92a3.63 3.63 0 0 0 4.949 0.165l3.189-2.79 0.981 1.472-5.991 5.136-7.157-0.895q0.162-0.769 0.38-1.525l-1.92-0.557a23.5 23.5 0 0 0-0.926 7.103c0.03 1.291 0.168 2.577 0.302 3.821 0.156 1.462 0.304 2.843 0.295 4.242-0.027 4.189-1.65 8.1-4.341 10.459l1.318 1.504c1.905-1.67 3.316-3.923 4.152-6.5 0.302-0.101 0.686-0.094 1.063-0.062a11.8 11.8 0 0 1 3.785 1.016 12 12 0 0 0-1.182 2.503l1.896 0.637a10 10 0 0 1 1.047-2.178q0.037 0.022 0.073 0.044l0.959-1.399c1.884-2.11 4.66-3.581 7.889-4.064 4.835-0.725 9.33 0.933 11.751 4.317l1.627-1.164c-1.004-1.403-2.306-2.55-3.808-3.42 2.897-2.411 7.09-3.279 10.665-2.037l0.656-1.889c-4.508-1.57-9.844-0.3-13.271 2.994-2.38-0.907-5.106-1.201-7.915-0.779-3.739 0.558-6.961 2.292-9.154 4.787a13.8 13.8 0 0 0-4.843-1.359 7 7 0 0 0-0.7-0.027 18.5 18.5 0 0 0 0.332-3.369c0.01-1.514-0.151-3.016-0.307-4.469-0.129-1.203-0.262-2.447-0.29-3.655a21.4 21.4 0 0 1 0.148-2.998l7.666 0.958q0.066 0.005 0.127 0.006a1 1 0 0 0 0.65-0.241l7-6a1 1 0 0 0 0.182-1.313l-1.754-2.632a3.6 3.6 0 0 0 0.457-1.803 3.62 3.62 0 0 0-1.359-2.751l-5.943-4.755a3.62 3.62 0 0 0-4.474-0.042l-11.323 8.712-0.37 0.253c-0.535 0.249-1.143 0.567-1.666 1.027-1.036 0.911-1.479 2.252-1.868 3.436-0.109 0.333-0.217 0.66-0.335 0.964l-5.99 15.352c-0.511 1.31-0.974 3.973-1.421 6.547-0.253 1.455-0.491 2.83-0.683 3.583q-0.113 0.446-0.218 0.897c-0.28 1.186-0.545 2.305-1.097 3.257a1 1 0 0 0 0.354 1.36l3.523 2.093c9.443 5.609 21.25 9.479 31.585 10.353a36 36 0 0 0 2.962 0.108c5.749 0 15.023-1.006 19.423-4.633l-1.271-1.543c-4.544 3.746-15.885 4.501-20.945 4.075" fill="black"></path></svg></g></svg></g></svg></g><defs><mask></mask></defs></svg><rect width="395.5199999999999" height="79.13202062874724" fill="black" stroke="none" visibility="hidden"></rect></g></mask><linearGradient x1="0" x2="1" y1="0.578" y2="0.595" id="69d0a286-933e-42be-b186-ea1bc950831a"><stop stop-color="#dede50" offset="0"></stop><stop stop-color="#559c49" offset="1"></stop></linearGradient><rect width="395.5199999999999" height="79.13202062874724" fill="url(#69d0a286-933e-42be-b186-ea1bc950831a)" mask="url(#2d7f13a7-6e9e-48e2-9226-da5520a88a41)" data-fill-palette-color="primary"></rect><mask id="b4c7c581-a5e2-4ac0-bb16-95fd6102fe45"><g id="SvgjsG3031"><svg viewBox="0 0 395.5199999999999 79.13202062874724" height="79.13202062874724" width="395.5199999999999"><g><svg viewBox="0 0 509.0318490084405 101.84243218149592" height="79.13202062874724" width="395.5199999999999"><g transform="matrix(1,0,0,1,113.51184900844048,25.68420793761078)"><svg viewBox="0 0 395.52 50.474016306274365" height="50.474016306274365" width="395.52"><g id="SvgjsG3030"><svg viewBox="0 0 395.52 50.474016306274365" height="50.474016306274365" width="395.52" id="SvgjsSvg3029"><g><svg viewBox="0 0 395.52 50.474016306274365" height="50.474016306274365" width="395.52"><g transform="matrix(1,0,0,1,0,0)"><svg width="395.52" viewBox="2.25 -35.75 282.08 36" height="50.474016306274365" data-palette-color="url(#69d0a286-933e-42be-b186-ea1bc950831a)"></svg></g></svg></g></svg></g></svg></g><g><svg viewBox="0 0 101.59614513492045 101.84243218149592" height="101.84243218149592" width="101.59614513492045"><g><svg xmlns="http://www.w3.org/2000/svg" xml:space="preserve" viewBox="3.65342824202639 2.7098870943043507 58.553571757973614 58.695515984652346" x="0" y="0" height="101.84243218149592" width="101.59614513492045" class="icon-icon-0" data-fill-palette-color="accent" id="SvgjsSvg3028"><path d="M9 7h2v2H9zM13 7h2v2h-2zM17 7h2v2h-2zM51 24h2c0-1.654 1.346-3 3-3v-2c-1.654 0-3-1.346-3-3h-2c0 1.654-1.346 3-3 3v2c1.654 0 3 1.346 3 3m1-5.031q0.44 0.591 1.031 1.031A5 5 0 0 0 52 21.031 5 5 0 0 0 50.969 20 5 5 0 0 0 52 18.969M57 13h2c0-1.654 1.346-3 3-3V8c-1.654 0-3-1.346-3-3h-2c0 1.654-1.346 3-3 3v2c1.654 0 3 1.346 3 3m1-5.031q0.44 0.591 1.031 1.031A5 5 0 0 0 58 10.031 5 5 0 0 0 56.969 9 5 5 0 0 0 58 7.969" fill="white"></path><path d="M39.419 59.304c-10.048-0.85-21.536-4.617-30.731-10.08l-2.727-1.619c0.406-0.95 0.641-1.943 0.87-2.91q0.101-0.436 0.209-0.865c0.211-0.827 0.445-2.175 0.716-3.734 0.39-2.245 0.875-5.039 1.313-6.162l5.99-15.352c0.131-0.335 0.25-0.696 0.372-1.065 0.324-0.986 0.66-2.007 1.288-2.559 0.354-0.312 0.815-0.544 1.26-0.749a1 1 0 0 0 0.146-0.083l11.853-9.077a1.62 1.62 0 0 1 2.004 0.02l5.944 4.755a1.622 1.622 0 0 1 0.054 2.49l-3.792 3.317a1.63 1.63 0 0 1-2.219-0.073 1.623 1.623 0 0 1 0.249-2.501l0.336-0.225-1.111-1.662-0.335 0.224c-0.907 0.604-1.489 1.573-1.597 2.658s0.273 2.149 1.044 2.92a3.63 3.63 0 0 0 4.949 0.165l3.189-2.79 0.981 1.472-5.991 5.136-7.157-0.895q0.162-0.769 0.38-1.525l-1.92-0.557a23.5 23.5 0 0 0-0.926 7.103c0.03 1.291 0.168 2.577 0.302 3.821 0.156 1.462 0.304 2.843 0.295 4.242-0.027 4.189-1.65 8.1-4.341 10.459l1.318 1.504c1.905-1.67 3.316-3.923 4.152-6.5 0.302-0.101 0.686-0.094 1.063-0.062a11.8 11.8 0 0 1 3.785 1.016 12 12 0 0 0-1.182 2.503l1.896 0.637a10 10 0 0 1 1.047-2.178q0.037 0.022 0.073 0.044l0.959-1.399c1.884-2.11 4.66-3.581 7.889-4.064 4.835-0.725 9.33 0.933 11.751 4.317l1.627-1.164c-1.004-1.403-2.306-2.55-3.808-3.42 2.897-2.411 7.09-3.279 10.665-2.037l0.656-1.889c-4.508-1.57-9.844-0.3-13.271 2.994-2.38-0.907-5.106-1.201-7.915-0.779-3.739 0.558-6.961 2.292-9.154 4.787a13.8 13.8 0 0 0-4.843-1.359 7 7 0 0 0-0.7-0.027 18.5 18.5 0 0 0 0.332-3.369c0.01-1.514-0.151-3.016-0.307-4.469-0.129-1.203-0.262-2.447-0.29-3.655a21.4 21.4 0 0 1 0.148-2.998l7.666 0.958q0.066 0.005 0.127 0.006a1 1 0 0 0 0.65-0.241l7-6a1 1 0 0 0 0.182-1.313l-1.754-2.632a3.6 3.6 0 0 0 0.457-1.803 3.62 3.62 0 0 0-1.359-2.751l-5.943-4.755a3.62 3.62 0 0 0-4.474-0.042l-11.323 8.712-0.37 0.253c-0.535 0.249-1.143 0.567-1.666 1.027-1.036 0.911-1.479 2.252-1.868 3.436-0.109 0.333-0.217 0.66-0.335 0.964l-5.99 15.352c-0.511 1.31-0.974 3.973-1.421 6.547-0.253 1.455-0.491 2.83-0.683 3.583q-0.113 0.446-0.218 0.897c-0.28 1.186-0.545 2.305-1.097 3.257a1 1 0 0 0 0.354 1.36l3.523 2.093c9.443 5.609 21.25 9.479 31.585 10.353a36 36 0 0 0 2.962 0.108c5.749 0 15.023-1.006 19.423-4.633l-1.271-1.543c-4.544 3.746-15.885 4.501-20.945 4.075" fill="white"></path></svg></g></svg></g></svg></g><defs><mask></mask></defs><mask><g id="SvgjsG3027"><svg viewBox="0 0 395.5199999999999 79.13202062874724" height="79.13202062874724" width="395.5199999999999"><g><svg viewBox="0 0 509.0318490084405 101.84243218149592" height="79.13202062874724" width="395.5199999999999"><g transform="matrix(1,0,0,1,113.51184900844048,25.68420793761078)"><svg viewBox="0 0 395.52 50.474016306274365" height="50.474016306274365" width="395.52"><g id="SvgjsG3026"><svg viewBox="0 0 395.52 50.474016306274365" height="50.474016306274365" width="395.52" id="SvgjsSvg3025"><g><svg viewBox="0 0 395.52 50.474016306274365" height="50.474016306274365" width="395.52"><g transform="matrix(1,0,0,1,0,0)"><svg width="395.52" viewBox="2.25 -35.75 282.08 36" height="50.474016306274365" data-palette-color="url(#69d0a286-933e-42be-b186-ea1bc950831a)"><path d="M10.35-17.65L2.25-17.65 2.25-35.75 46.25-35.75 46.25-17.65 38.15-17.65 38.15-29.25 27.25-29.25 27.25 0 19.25 0 19.25-29.25 10.35-29.25 10.35-17.65ZM58.6 0L51.25 0 51.25-25.75 70.95-25.75Q75.3-25.75 77.35-23.58 79.4-21.4 79.4-17.85L79.4-17.85 79.4-12.5 72.05-12.5 72.05-16.95Q72.05-19.95 69.05-19.95L69.05-19.95 58.6-19.95 58.6 0ZM116.7 0L90.25 0Q86.2 0 84.05-2.05 81.9-4.1 81.9-7.9L81.9-7.9Q81.9-11.65 84.05-13.7 86.2-15.75 90.25-15.75L90.25-15.75 109.45-15.75 109.45-16.95Q109.45-20 106.45-20L106.45-20 85.25-20 85.25-25.75 108.35-25.75Q112.9-25.75 114.8-23.68 116.7-21.6 116.7-17.85L116.7-17.85 116.7 0ZM91.55-5.75L91.55-5.75 109.45-5.75 109.45-10 91.55-10Q90.6-10 90.07-9.43 89.55-8.85 89.55-7.9L89.55-7.9Q89.55-6.95 90.07-6.35 90.6-5.75 91.55-5.75ZM129.44 0L122.19 0 122.19-25.75 129.44-25.75 129.44 0ZM129.49-30L122.14-30 122.14-35.65 129.49-35.65 129.49-30ZM142.19 0L134.94 0 134.94-25.75 157.39-25.75Q161.79-25.75 163.82-23.58 165.84-21.4 165.84-17.85L165.84-17.85 165.84 0 158.59 0 158.59-17Q158.59-20 155.59-20L155.59-20 142.19-20 142.19 0ZM181.54 0L174.84 0 170.84-35.75 178.84-35.75 181.79-9.65 191.74-17.3 191.74-35.75 199.74-35.75 199.74-17.25 209.59-9.65 212.59-35.75 220.59-35.75 216.59 0 209.89 0 195.74-11.45 181.54 0ZM258.54 0.25L238.29 0.25Q231.59 0.25 227.84-3.08 224.09-6.4 224.09-12.85L224.09-12.85Q224.09-19.35 227.84-22.68 231.59-26 238.29-26L238.29-26 250.79-26Q255.19-26 257.51-23.93 259.84-21.85 259.84-18L259.84-18Q259.84-10.15 250.79-10.15L250.79-10.15 231.89-10.15Q232.94-5.5 238.29-5.5L238.29-5.5 258.54-5.5 258.54 0.25ZM250.44-20.25L238.29-20.25Q233.14-20.25 231.94-15.9L231.94-15.9 250.44-15.9Q251.44-15.9 252.01-16.5 252.59-17.1 252.59-18.15L252.59-18.15Q252.59-20.25 250.44-20.25L250.44-20.25ZM271.58 0L264.33 0 264.33-35.75 271.58-35.75 271.58 0ZM284.33 0L277.08 0 277.08-35.75 284.33-35.75 284.33 0Z" opacity="1" transform="matrix(1,0,0,1,0,0)" fill="black" class="wordmark-text-0" id="SvgjsPath3024"></path></svg></g></svg></g></svg></g></svg></g><g><svg viewBox="0 0 101.59614513492045 101.84243218149592" height="101.84243218149592" width="101.59614513492045"><g><svg xmlns="http://www.w3.org/2000/svg" xml:space="preserve" viewBox="3.65342824202639 2.7098870943043507 58.553571757973614 58.695515984652346" x="0" y="0" height="101.84243218149592" width="101.59614513492045" class="icon-icon-0" data-fill-palette-color="accent" id="SvgjsSvg3023"><path d="M9 7h2v2H9zM13 7h2v2h-2zM17 7h2v2h-2zM51 24h2c0-1.654 1.346-3 3-3v-2c-1.654 0-3-1.346-3-3h-2c0 1.654-1.346 3-3 3v2c1.654 0 3 1.346 3 3m1-5.031q0.44 0.591 1.031 1.031A5 5 0 0 0 52 21.031 5 5 0 0 0 50.969 20 5 5 0 0 0 52 18.969M57 13h2c0-1.654 1.346-3 3-3V8c-1.654 0-3-1.346-3-3h-2c0 1.654-1.346 3-3 3v2c1.654 0 3 1.346 3 3m1-5.031q0.44 0.591 1.031 1.031A5 5 0 0 0 58 10.031 5 5 0 0 0 56.969 9 5 5 0 0 0 58 7.969" fill="black"></path><path d="M39.419 59.304c-10.048-0.85-21.536-4.617-30.731-10.08l-2.727-1.619c0.406-0.95 0.641-1.943 0.87-2.91q0.101-0.436 0.209-0.865c0.211-0.827 0.445-2.175 0.716-3.734 0.39-2.245 0.875-5.039 1.313-6.162l5.99-15.352c0.131-0.335 0.25-0.696 0.372-1.065 0.324-0.986 0.66-2.007 1.288-2.559 0.354-0.312 0.815-0.544 1.26-0.749a1 1 0 0 0 0.146-0.083l11.853-9.077a1.62 1.62 0 0 1 2.004 0.02l5.944 4.755a1.622 1.622 0 0 1 0.054 2.49l-3.792 3.317a1.63 1.63 0 0 1-2.219-0.073 1.623 1.623 0 0 1 0.249-2.501l0.336-0.225-1.111-1.662-0.335 0.224c-0.907 0.604-1.489 1.573-1.597 2.658s0.273 2.149 1.044 2.92a3.63 3.63 0 0 0 4.949 0.165l3.189-2.79 0.981 1.472-5.991 5.136-7.157-0.895q0.162-0.769 0.38-1.525l-1.92-0.557a23.5 23.5 0 0 0-0.926 7.103c0.03 1.291 0.168 2.577 0.302 3.821 0.156 1.462 0.304 2.843 0.295 4.242-0.027 4.189-1.65 8.1-4.341 10.459l1.318 1.504c1.905-1.67 3.316-3.923 4.152-6.5 0.302-0.101 0.686-0.094 1.063-0.062a11.8 11.8 0 0 1 3.785 1.016 12 12 0 0 0-1.182 2.503l1.896 0.637a10 10 0 0 1 1.047-2.178q0.037 0.022 0.073 0.044l0.959-1.399c1.884-2.11 4.66-3.581 7.889-4.064 4.835-0.725 9.33 0.933 11.751 4.317l1.627-1.164c-1.004-1.403-2.306-2.55-3.808-3.42 2.897-2.411 7.09-3.279 10.665-2.037l0.656-1.889c-4.508-1.57-9.844-0.3-13.271 2.994-2.38-0.907-5.106-1.201-7.915-0.779-3.739 0.558-6.961 2.292-9.154 4.787a13.8 13.8 0 0 0-4.843-1.359 7 7 0 0 0-0.7-0.027 18.5 18.5 0 0 0 0.332-3.369c0.01-1.514-0.151-3.016-0.307-4.469-0.129-1.203-0.262-2.447-0.29-3.655a21.4 21.4 0 0 1 0.148-2.998l7.666 0.958q0.066 0.005 0.127 0.006a1 1 0 0 0 0.65-0.241l7-6a1 1 0 0 0 0.182-1.313l-1.754-2.632a3.6 3.6 0 0 0 0.457-1.803 3.62 3.62 0 0 0-1.359-2.751l-5.943-4.755a3.62 3.62 0 0 0-4.474-0.042l-11.323 8.712-0.37 0.253c-0.535 0.249-1.143 0.567-1.666 1.027-1.036 0.911-1.479 2.252-1.868 3.436-0.109 0.333-0.217 0.66-0.335 0.964l-5.99 15.352c-0.511 1.31-0.974 3.973-1.421 6.547-0.253 1.455-0.491 2.83-0.683 3.583q-0.113 0.446-0.218 0.897c-0.28 1.186-0.545 2.305-1.097 3.257a1 1 0 0 0 0.354 1.36l3.523 2.093c9.443 5.609 21.25 9.479 31.585 10.353a36 36 0 0 0 2.962 0.108c5.749 0 15.023-1.006 19.423-4.633l-1.271-1.543c-4.544 3.746-15.885 4.501-20.945 4.075" fill="black"></path></svg></g></svg></g></svg></g><defs><mask></mask></defs></svg><rect width="395.5199999999999" height="79.13202062874724" fill="black" stroke="none" visibility="hidden"></rect></g></mask></svg><rect width="395.5199999999999" height="79.13202062874724" fill="black" stroke="none" visibility="hidden"></rect></g></mask><linearGradient x1="0" x2="1" y1="0.578" y2="0.595" id="699452d1-1233-447b-b69d-cabcf6eec8aa"><stop stop-color="#dede50" offset="0"></stop><stop stop-color="#559c49" offset="1"></stop></linearGradient><rect width="395.5199999999999" height="79.13202062874724" fill="url(#699452d1-1233-447b-b69d-cabcf6eec8aa)" mask="url(#b4c7c581-a5e2-4ac0-bb16-95fd6102fe45)" data-fill-palette-color="accent"></rect></svg><rect width="395.5199999999999" height="79.13202062874724" fill="none" stroke="none" visibility="hidden"></rect></g></svg></g></svg>